<?xml version="1.0" standalone="no"?>
<!DOCTYPE svg PUBLIC "-//W3C//DTD SVG 1.1//EN" "http://www.w3.org/Graphics/SVG/1.1/DTD/svg11.dtd" >
<svg>
<metadata>
Created by FontForge 20090622 at Sun May 10 23:02:35 2020
 By deploy user
</metadata>
<defs>
<font id="TheBoldFont" horiz-adv-x="648" >
  <font-face 
    font-family="The Bold Font"
    font-weight="700"
    font-stretch="normal"
    units-per-em="1000"
    panose-1="0 0 0 0 0 0 0 0 0 0"
    ascent="750"
    descent="-250"
    x-height="735"
    cap-height="735"
    bbox="-41 -231 1205.19 997"
    underline-thickness="50"
    underline-position="-50"
    unicode-range="U+000D-U+2122"
  />
<missing-glyph horiz-adv-x="170" 
 />
    <glyph glyph-name=".notdef" horiz-adv-x="170" 
 />
    <glyph glyph-name="NULL" horiz-adv-x="0" 
 />
    <glyph glyph-name="NULL" horiz-adv-x="0" 
 />
    <glyph glyph-name="nonmarkingreturn" unicode="&#xd;" horiz-adv-x="170" 
 />
    <glyph glyph-name="space" unicode=" " horiz-adv-x="170" 
 />
    <glyph glyph-name="percent" unicode="%" horiz-adv-x="901" 
d="M804 633l-581 -640l-125 114l580 639zM226 390q-33 0 -62.5 11.5t-53 31.5t-39 48.5t-19.5 61.5q-5 36 4.5 69.5t30 60.5t50.5 44.5t66 22.5q6 1 12 1.5t11 0.5q33 0 62.5 -11.5t53 -32t39 -48.5t19.5 -61q5 -36 -4.5 -69.5t-30 -60.5t-50.5 -45t-66 -22q-6 -1 -12 -1.5
t-11 -0.5zM221 601q-14 -2 -23 -14t-7 -26q2 -13 11.5 -21.5t23.5 -8.5h4q15 2 23.5 13.5t6.5 25.5t-11.5 22.5t-22.5 8.5h-5zM849 200q5 -36 -4.5 -69.5t-30 -60.5t-50.5 -45t-66 -22q-6 -1 -12 -1.5t-12 -0.5q-33 0 -62.5 11.5t-52.5 31.5t-39 48.5t-20 61.5q-5 36 5 69.5
t30.5 60.5t50.5 44.5t66 22.5q5 1 11 1.5t12 0.5q33 0 62.5 -11.5t52.5 -32t38.5 -48.5t20.5 -61zM679 142q14 2 23 13.5t7 25.5t-11.5 22.5t-22.5 8.5q-3 0 -5 -1q-14 -2 -23 -13.5t-7 -25.5q2 -13 11.5 -21.5t22.5 -8.5h5z" />
    <glyph glyph-name="ampersand" unicode="&#x26;" horiz-adv-x="705" 
d="M275 0h-10.5t-10.5 1q-69 5 -118 42t-72 100q-16 45 -13 83.5t19 71.5t41 61.5t54 52.5q-14 14 -26.5 31.5t-21.5 39.5q-18 43 -14.5 88.5t28.5 86.5q26 42 67.5 67t90.5 29q59 4 109 -22.5t79 -77.5q28 -49 26 -104t-34 -102q-11 -16 -25 -30t-30 -28l241 -268
l-126 -113l-55 61q-42 -32 -94 -51t-105 -19zM279 287q-35 -28 -48.5 -48t-6.5 -39q5 -13 13.5 -20.5t29.5 -9.5q22 -2 47 5.5t46 20.5zM304 585h-2q-10 -1 -16.5 -6t-10.5 -10q-5 -8 -4 -14t2 -8q2 -5 10.5 -14l16.5 -17v-1q21 17 29 30q2 2 4.5 8.5t-3.5 16.5q-2 2 -8 8.5
t-18 6.5z" />
    <glyph glyph-name="quotesingle" unicode="'" horiz-adv-x="269" 
d="M50 733h169v-336h-169v336z" />
    <glyph glyph-name="parenleft" unicode="(" horiz-adv-x="406" 
d="M150 0q-48 83 -74 177t-26 197q0 101 25.5 194.5t72.5 175.5h204q-63 -76 -98 -170t-35 -200q0 -107 36.5 -202.5t100.5 -171.5h-206z" />
    <glyph glyph-name="parenright" unicode=")" horiz-adv-x="406" 
d="M256 744q48 -83 74 -177t26 -197q0 -101 -25.5 -194.5t-72.5 -175.5h-205q63 76 98 170t35 200q0 107 -36 202.5t-100 171.5h206z" />
    <glyph glyph-name="asterisk" unicode="*" horiz-adv-x="512" 
d="M462 613l-86 -86l86 -86l-120 -120l-86 86l-86 -86l-120 120l86 86l-86 86l120 120l86 -86l86 86z" />
    <glyph glyph-name="plus" unicode="+" horiz-adv-x="582" 
d="M532 451v-169h-157v-156h-169v156l-156 1v169h156v156h169v-156z" />
    <glyph glyph-name="comma" unicode="," horiz-adv-x="255" 
d="M0 -107l81 198h144l-81 -198h-144z" />
    <glyph glyph-name="hyphen" unicode="-" horiz-adv-x="582" 
d="M532 282l-482 1v169l482 -1v-169z" />
    <glyph glyph-name="period" unicode="." horiz-adv-x="228" 
d="M201 87q0 -36 -25.5 -61.5t-61.5 -25.5t-61.5 25.5t-25.5 61.5t25.5 61.5t61.5 25.5t61.5 -25.5t25.5 -61.5z" />
    <glyph glyph-name="slash" unicode="/" horiz-adv-x="368" 
d="M221 0h-171l97 743h171z" />
    <glyph glyph-name="dollar" unicode="$" horiz-adv-x="529" 
d="M357 446q57 -26 89.5 -76t32.5 -112q0 -61 -32.5 -111t-89.5 -76q-4 -2 -8 -3.5l-9 -3.5v-64h-151v65q-20 7 -41 20q-46 29 -72 77.5t-26 105.5l169 -1q0 -17 7.5 -26.5t13.5 -13.5q5 -3 17.5 -6.5t29.5 4.5q15 7 19 17t4 16q0 7 -4 17t-19 17q-8 4 -18 7t-21 7
q-20 6 -42 14.5t-45 22.5q-31 19 -52 48t-30 62.5t-6 68.5t20 68q32 62 96 87v65h151v-65q55 -22 87.5 -68.5t32.5 -105.5h-169q0 2 -2 8.5t-16 9.5q-3 1 -14 1t-16 -10q-3 -6 -1 -13.5t9 -12.5q9 -5 22 -9.5l27 -9.5q13 -5 27.5 -9.5t29.5 -11.5z" />
    <glyph glyph-name="zero" unicode="0" horiz-adv-x="735" 
d="M367 735q76 0 143 -29t117 -78.5t79 -116.5t29 -143t-29 -143t-79 -116.5t-117 -78.5t-143 -29t-143 29t-116.5 78.5t-78.5 116.5t-29 143t29 143t78.5 116.5t116.5 78.5t143 29zM367 170q41 0 77 15.5t63 42.5t42.5 63t15.5 77t-15.5 77t-42.5 63t-63 42.5t-77 15.5
t-77 -15.5t-63 -42.5t-42.5 -63t-15.5 -77t15.5 -77t42.5 -63t63 -42.5t77 -15.5z" />
    <glyph glyph-name="one" unicode="1" horiz-adv-x="450" 
d="M231 736h169v-736h-169v468l-50 -62l-131 107z" />
    <glyph glyph-name="two" unicode="2" horiz-adv-x="592" 
d="M542 169v-169h-492v182q73 44 132.5 89t101.5 86.5t65 75.5t23 55q0 32 -22 54t-54 22t-54 -22t-22 -54h-170q0 51 19.5 95.5t53 78t78 53t95.5 19.5t95.5 -19.5t78 -53t53 -78t19.5 -95.5q0 -145 -216 -319h216z" />
    <glyph glyph-name="three" unicode="3" horiz-adv-x="591" 
d="M402 465q31 -15 56.5 -37.5t44 -51t28.5 -61.5t10 -69q0 -51 -19.5 -96t-52.5 -78t-77.5 -52.5t-95.5 -19.5t-96 19.5t-78 52.5t-52.5 78t-19.5 96h169q0 -32 22.5 -54.5t54.5 -22.5t54 22.5t22 54.5q0 31 -22 52.5t-54 21.5h-111v168l81 80h-199v169h466v-143z" />
    <glyph glyph-name="four" unicode="4" horiz-adv-x="564" 
d="M345 736h169v-736h-169v130h-295v169v0v0zM254 299h91v134z" />
    <glyph glyph-name="five" unicode="5" horiz-adv-x="591" 
d="M296 0q-51 0 -96 19.5t-78 52.5t-52.5 78t-19.5 96h169q0 -32 22.5 -54.5t54.5 -22.5t54 22.5t22 54.5q0 31 -22 52t-54 21h-246v418h458v-169h-289v-80h77q51 0 95.5 -19t77.5 -52t52.5 -77t19.5 -94q0 -51 -19.5 -96t-52.5 -78t-77.5 -52.5t-95.5 -19.5z" />
    <glyph glyph-name="six" unicode="6" horiz-adv-x="597" 
d="M324 530q51 -5 94.5 -27t76 -57.5t51 -81.5t18.5 -98q0 -55 -21 -103.5t-57 -84.5t-84 -57t-103 -21t-103.5 21t-84.5 57t-57 84.5t-21 103.5q0 60 26 114l179 355h190zM299 170q40 0 68 28t28 68q0 20 -7.5 37.5t-20.5 31t-30.5 21t-37.5 7.5t-37.5 -7.5t-31 -21
t-21 -31t-7.5 -37.5t7.5 -37.5t21 -30.5t31 -20.5t37.5 -7.5z" />
    <glyph glyph-name="seven" unicode="7" horiz-adv-x="560" 
d="M52 0l232 565h-259v169h512l-302 -734h-183z" />
    <glyph glyph-name="eight" unicode="8" horiz-adv-x="521" 
d="M434 422q34 -34 53.5 -79t19.5 -96t-19.5 -96t-53 -78.5t-78.5 -53t-96 -19.5t-96 19.5t-78.5 53t-53 78.5t-19.5 96t19.5 96t53.5 79q-14 24 -22.5 51t-8.5 57q0 42 16 79.5t44 65.5t65.5 44t79.5 16t79.5 -16t65.5 -44t44 -65.5t16 -79.5q0 -30 -8.5 -57t-22.5 -51z
M260 566q-15 0 -25.5 -10.5t-10.5 -25.5q0 -14 10.5 -24.5t25.5 -10.5q14 0 24.5 10.5t10.5 24.5q0 15 -10.5 25.5t-24.5 10.5zM260 169q32 0 55 23t23 55t-23 55t-55 23t-55 -23t-23 -55t23 -55t55 -23z" />
    <glyph glyph-name="nine" unicode="9" horiz-adv-x="601" 
d="M274 205q-50 5 -94 27.5t-76.5 57.5t-51 81t-18.5 98q0 55 21 103.5t57 84.5t84.5 57t103.5 21t103 -21t84 -57t57 -84.5t21 -103.5q0 -59 -25 -114l-180 -355h-189zM300 566q-20 0 -37.5 -7.5t-31 -21t-21 -31t-7.5 -37.5t7.5 -37.5t21 -30.5t31 -20.5t37.5 -7.5
q40 0 68 28t28 68q0 20 -7.5 37.5t-20.5 31t-30.5 21t-37.5 7.5z" />
    <glyph glyph-name="colon" unicode=":" horiz-adv-x="275" 
d="M137 400q-36 0 -61.5 25.5t-25.5 61.5q0 37 25.5 62.5t61.5 25.5q37 0 62.5 -25.5t25.5 -62.5q0 -36 -25.5 -61.5t-62.5 -25.5zM137 334q37 0 62.5 -25.5t25.5 -61.5q0 -37 -25.5 -62.5t-62.5 -25.5q-36 0 -61.5 25.5t-25.5 62.5q0 36 25.5 61.5t61.5 25.5z" />
    <glyph glyph-name="semicolon" unicode=";" horiz-adv-x="325" 
d="M275 333l-81 -198h-144l81 198h144zM183 399q-37 0 -62.5 25.5t-25.5 62.5q0 36 25.5 61.5t62.5 25.5q36 0 61.5 -25.5t25.5 -61.5q0 -37 -25.5 -62.5t-61.5 -25.5z" />
    <glyph glyph-name="less" unicode="&#x3c;" horiz-adv-x="606" 
d="M50 446l437 195l69 -154l-268 -120l268 -120l-69 -154l-437 195v158z" />
    <glyph glyph-name="equal" unicode="=" horiz-adv-x="582" 
d="M532 588v-169h-482v169h482zM50 146v169h482v-169h-482z" />
    <glyph glyph-name="greater" unicode="&#x3e;" horiz-adv-x="606" 
d="M556 288l-437 -195l-69 154l268 120l-268 120l69 154l437 -195v-158z" />
    <glyph glyph-name="question" unicode="?" horiz-adv-x="584" 
d="M533 523q5 -64 -26 -122.5t-92 -102.5q-14 -10 -24 -32t-10 -42h-169q0 30 7.5 60.5t21 58.5t33 51.5t42.5 40.5q51 37 48 77q-1 16 -11.5 30t-27.5 23q-21 12 -39 8t-27 -10q-19 -11 -29.5 -29.5t-10.5 -41.5v-51h-169v51q0 68 32.5 125t89.5 92q55 32 116.5 33.5
t117.5 -28.5t89.5 -80.5t37.5 -110.5zM297 171q35 0 60 -25t25 -61q0 -35 -25 -60t-60 -25t-60 25t-25 60q0 36 25 61t60 25z" />
    <glyph glyph-name="at" unicode="@" horiz-adv-x="770" 
d="M581 353q9 0 14.5 6t5.5 15q-1 44 -18.5 83t-47.5 67.5t-69.5 45t-83.5 15.5q-89 -2 -151 -65q-30 -31 -46 -70.5t-15 -82.5q1 -44 17.5 -82.5t48.5 -68.5q31 -30 70 -46t83 -15h2q3 0 13.5 1t26.5 5.5t36.5 13t43.5 22.5l83 -131q-38 -24 -72 -37t-61.5 -19.5t-46 -8
t-24.5 -1.5q-24 0 -48 3q-124 14 -214 101q-54 52 -82.5 118.5t-30.5 141.5t25.5 142.5t78.5 121.5q52 54 118.5 82.5t141.5 29.5q76 1 144 -27t119.5 -77.5t81.5 -116.5t32 -143q0 -35 -14 -64.5t-37.5 -51.5t-54 -35t-64.5 -13h-11t-11 1q-36 5 -65 23q-47 -40 -111 -42
q-6 0 -12 0.5t-11 0.5q-33 4 -61 19t-49 38t-33 52.5t-13 62.5q0 37 13 69.5t36.5 56.5t55.5 38.5t69 14.5h11t12 -1q32 -4 60 -18.5t49 -37.5t33.5 -53t12.5 -63v-1q2 -19 20 -19zM386 335q14 1 24.5 11.5t9.5 24.5q0 13 -8.5 22.5t-21.5 11.5h-5q-14 0 -24.5 -10.5
t-10.5 -24.5q1 -14 9.5 -23t21.5 -11q2 -1 5 -1z" />
    <glyph glyph-name="B" unicode="B" horiz-adv-x="557" 
d="M445 442q47 -35 74 -84.5t27 -107.5q0 -52 -22 -97.5t-60.5 -79.5t-89.5 -53.5t-109 -19.5h-215v737l195 -1q46 0 87 -16t72 -43.5t48.5 -64t17.5 -78.5q0 -50 -25 -92zM219 567v-67h27q25 1 40 12t15 22q0 10 -15 21.5t-41 11.5h-26zM265 170q22 0 42.5 6.5t36 17.5
t24.5 25.5t9 30.5t-9 31t-24.5 26t-36 17.5t-42.5 6.5h-18h-2h-26v-161h46z" />
    <glyph glyph-name="C" unicode="C" horiz-adv-x="627" 
d="M367 1q-71 0 -138.5 26.5t-121.5 80.5q-52 53 -79.5 119.5t-27.5 140.5q0 75 27.5 141.5t79.5 118.5q54 54 122 81t138.5 27t138 -27t121.5 -81l-119 -119q-29 29 -66 43.5t-75 14.5t-74.5 -14.5t-65.5 -43.5q-28 -29 -43 -65t-15 -76t15 -75.5t43 -64.5
q29 -29 65.5 -43.5t74.5 -14.5t75 14.5t66 43.5l119 -120q-54 -54 -121 -80.5t-139 -26.5z" />
    <glyph glyph-name="D" unicode="D" horiz-adv-x="537" 
d="M196 737q73 -4 137.5 -35t112 -81t75 -116t27.5 -141q0 -74 -27 -138.5t-74.5 -113.5t-111.5 -78.5t-139 -33.5h-169v738h169v-1zM196 170q39 4 72.5 20.5t58 42t38.5 59.5t14 72q0 39 -14 74.5t-39 63t-58 45t-72 21.5v-398z" />
    <glyph glyph-name="E" unicode="E" horiz-adv-x="547" 
d="M510 565h-302v-111h245v-169h-245v-116h302v-169h-471v733l471 1v-169z" />
    <glyph glyph-name="F" unicode="F" horiz-adv-x="513" 
d="M493 565h-274v-111h217v-169h-217v-285h-169v734h443v-169z" />
    <glyph glyph-name="G" unicode="G" horiz-adv-x="677" 
d="M647 411v-411h-170v18q-28 -10 -57.5 -14.5t-58.5 -4.5q-71 0 -139 27t-122 81t-80.5 121.5t-26.5 138.5t26.5 139t80.5 122t122 81t139 27t139 -27t122 -81l-120 -120q-29 29 -66 43.5t-75 14.5t-75 -14.5t-66 -43.5t-44 -66t-15 -75t15 -75t44 -66q26 -26 58.5 -40.5
t67 -17t68.5 6.5t63 30v37h-147v169h317z" />
    <glyph glyph-name="H" unicode="H" horiz-adv-x="618" 
d="M414 734h169v-734h-169v277h-212v-277h-169v734h169v-288h212v288z" />
    <glyph glyph-name="I" unicode="I" horiz-adv-x="269" 
d="M219 0h-169v735h169v-735z" />
    <glyph glyph-name="J" unicode="J" horiz-adv-x="599" 
d="M549 746v-469q0 -58 -22.5 -108.5t-60 -88t-88 -59t-107.5 -21.5h-3q-57 1 -107 22.5t-90 61.5q-39 40 -59.5 90.5t-19.5 107.5l169 -2q0 -45 31 -78q33 -33 78 -33q22 0 42 8t35 23t24 35t9 43v468h169z" />
    <glyph glyph-name="K" unicode="K" horiz-adv-x="660" 
d="M699 735l-377 -368l377 -367h-244l-236 231v-231h-169v735h169v-232l237 232h243z" />
    <glyph glyph-name="L" unicode="L" horiz-adv-x="506" 
d="M487 0h-437v735h169v-566h268v-169z" />
    <glyph glyph-name="M" unicode="M" horiz-adv-x="758" 
d="M540 735h174l43 -735h-169l-18 300l-102 -300h-169l-108 312l-20 -312h-170l47 735h174l161 -460z" />
    <glyph glyph-name="N" unicode="N" horiz-adv-x="685" 
d="M473 734h169v-734h-183l-240 428v-428h-169v732h184l239 -427v429z" />
    <glyph glyph-name="O" unicode="O" horiz-adv-x="735" 
d="M367 735q76 0 143 -29t117 -78.5t79 -116.5t29 -143t-29 -143t-79 -116.5t-117 -78.5t-143 -29t-143 29t-116.5 78.5t-78.5 116.5t-29 143t29 143t78.5 116.5t116.5 78.5t143 29zM367 170q41 0 77 15.5t63 42.5t42.5 63t15.5 77t-15.5 77t-42.5 63t-63 42.5t-77 15.5
t-77 -15.5t-63 -42.5t-42.5 -63t-15.5 -77t15.5 -77t42.5 -63t63 -42.5t77 -15.5z" />
    <glyph glyph-name="P" unicode="P" horiz-adv-x="572" 
d="M522 425q0 -63 -23.5 -118.5t-65 -97.5t-96.5 -66.5t-118 -25.5v-117h-169v734h169q63 -1 118 -26t96.5 -67t65 -97.5t23.5 -118.5zM219 286q28 1 52.5 12.5t42.5 30t28.5 43.5t10.5 53t-10.5 53t-28.5 43.5t-42.5 30t-52.5 12.5v-278z" />
    <glyph glyph-name="Q" unicode="Q" horiz-adv-x="711" 
d="M721 367q0 -75 -28 -140.5t-77 -115.5l43 -62l-139 -96l-47 67q-28 -9 -57.5 -14t-60.5 -5q-76 0 -142.5 29t-116 78.5t-78.5 116t-29 142.5t29 142.5t78.5 116t116 78.5t142.5 29t142.5 -29t116 -78.5t78.5 -116t29 -142.5zM355 170q10 0 15 1l-86 125l140 96l93 -136
q17 23 26 51.5t9 59.5q0 40 -15.5 76t-42 63t-62.5 42.5t-77 15.5t-77 -15.5t-62.5 -42.5t-42 -63t-15.5 -76q0 -41 15.5 -77t42 -62.5t62.5 -42t77 -15.5z" />
    <glyph glyph-name="R" unicode="R" horiz-adv-x="613" 
d="M272 190q-13 -2 -26 -3l-27 -2v-185h-169v732h169q63 -1 118 -23t96.5 -59t65 -86t23.5 -105q0 -59 -25 -109.5t-70 -87.5l162 -262h-199zM219 355q27 1 51.5 9.5t43 22.5t29 32.5t10.5 39.5t-10.5 39t-29 32t-43 22.5t-51.5 9.5v-207z" />
    <glyph glyph-name="S" unicode="S" horiz-adv-x="537" 
d="M268 -14q-35 0 -69.5 9.5t-65.5 29.5q-54 35 -84 90.5t-30 121.5h169q0 -30 13 -46.5t23 -22.5q18 -12 39 -13t41 8q14 6 22.5 15t13 17.5t5.5 16.5t1 13t-1 13t-5.5 17t-13 17.5t-22.5 15.5q-11 5 -23.5 9t-26.5 9q-25 8 -52 18t-54 27q-35 22 -59 55t-34.5 71t-7 78.5
t22.5 77.5q18 34 45 59t60 39.5t71 17.5t77 -7q38 -9 69 -28.5t53.5 -47t34.5 -61.5t12 -71h-169q0 23 -14.5 32t-25.5 12q-2 0 -9.5 1.5t-17 0t-19.5 -7t-16 -17.5q-8 -16 -3 -33.5t20 -27.5q14 -8 31 -14.5t36 -12.5q17 -5 34.5 -11t35.5 -14q66 -30 103.5 -88t37.5 -129
q0 -70 -37.5 -128t-103.5 -88q-26 -12 -53 -17.5t-54 -5.5z" />
    <glyph glyph-name="T" unicode="T" horiz-adv-x="493" 
d="M471 737v-170h-141v-567h-169v567h-140v170h450z" />
    <glyph glyph-name="U" unicode="U" horiz-adv-x="658" 
d="M329 0q-56 0 -106 20.5t-89 58.5q-40 40 -61.5 90t-22.5 107v459h169v-458q0 -44 33 -77q33 -31 78 -31q22 0 42 9t35 24t23 35t8 43v455h169v-454q1 -57 -20.5 -108t-59 -89t-88 -60.5t-107.5 -23.5h-3z" />
    <glyph glyph-name="V" unicode="V" horiz-adv-x="562" 
d="M427 740h179l-250 -740h-160l-237 740h178l141 -454z" />
    <glyph glyph-name="W" unicode="W" horiz-adv-x="917" 
d="M770 739h177l-217 -739h-167l-97 368l-84 -368h-168l-244 739h178l136 -409l93 409h166l108 -407z" />
    <glyph glyph-name="X" unicode="X" horiz-adv-x="663" 
d="M643 740l-216 -358l235 -382h-199l-134 218l-132 -218h-197l229 381l-220 359h198l121 -196l117 196h198z" />
    <glyph glyph-name="Y" unicode="Y" horiz-adv-x="698" 
d="M164 0l85 208l-251 532h187l151 -319l129 319h183l-301 -740h-183z" />
    <glyph glyph-name="Z" unicode="Z" horiz-adv-x="656" 
d="M602 0h-586l307 570h-267v170l550 -1l-307 -570h303v-169z" />
    <glyph glyph-name="bracketleft" unicode="[" horiz-adv-x="353" 
d="M303 0h-253v735h253v-169h-84v-397h84v-169z" />
    <glyph glyph-name="backslash" unicode="\" horiz-adv-x="368" 
d="M147 0l-97 743h171l97 -743h-171z" />
    <glyph glyph-name="bracketright" unicode="]" horiz-adv-x="353" 
d="M303 0h-253v169h84v397h-84v169h253v-735z" />
    <glyph glyph-name="asciicircum" unicode="^" horiz-adv-x="649" 
d="M403 733l196 -437l-155 -69l-120 268l-120 -268l-154 69l195 437h158z" />
    <glyph glyph-name="underscore" unicode="_" horiz-adv-x="582" 
d="M532 0h-482v169h482v-169z" />
    <glyph glyph-name="A" unicode="A" 
d="M470 0l-29 89h-231l-30 -89h-179l250 734h160l237 -734h-178zM268 258h119l-58 178z" />
    <glyph glyph-name="a" unicode="a" 
d="M470 0l-29 89h-231l-30 -89h-179l250 734h160l237 -734h-178zM268 258h119l-58 178z" />
    <glyph glyph-name="b" unicode="b" horiz-adv-x="557" 
d="M445 442q47 -35 74 -84.5t27 -107.5q0 -52 -22 -97.5t-60.5 -79.5t-89.5 -53.5t-109 -19.5h-215v737l195 -1q46 0 87 -16t72 -43.5t48.5 -64t17.5 -78.5q0 -50 -25 -92zM219 567v-67h27q25 1 40 12t15 22q0 10 -15 21.5t-41 11.5h-26zM265 170q22 0 42.5 6.5t36 17.5
t24.5 25.5t9 30.5t-9 31t-24.5 26t-36 17.5t-42.5 6.5h-18h-2h-26v-161h46z" />
    <glyph glyph-name="c" unicode="c" horiz-adv-x="627" 
d="M367 1q-71 0 -138.5 26.5t-121.5 80.5q-52 53 -79.5 119.5t-27.5 140.5q0 75 27.5 141.5t79.5 118.5q54 54 122 81t138.5 27t138 -27t121.5 -81l-119 -119q-29 29 -66 43.5t-75 14.5t-74.5 -14.5t-65.5 -43.5q-28 -29 -43 -65t-15 -76t15 -75.5t43 -64.5
q29 -29 65.5 -43.5t74.5 -14.5t75 14.5t66 43.5l119 -120q-54 -54 -121 -80.5t-139 -26.5z" />
    <glyph glyph-name="d" unicode="d" horiz-adv-x="537" 
d="M196 737q73 -4 137.5 -35t112 -81t75 -116t27.5 -141q0 -74 -27 -138.5t-74.5 -113.5t-111.5 -78.5t-139 -33.5h-169v738h169v-1zM196 170q39 4 72.5 20.5t58 42t38.5 59.5t14 72q0 39 -14 74.5t-39 63t-58 45t-72 21.5v-398z" />
    <glyph glyph-name="e" unicode="e" horiz-adv-x="547" 
d="M510 565h-302v-111h245v-169h-245v-116h302v-169h-471v733l471 1v-169z" />
    <glyph glyph-name="f" unicode="f" horiz-adv-x="513" 
d="M493 565h-274v-111h217v-169h-217v-285h-169v734h443v-169z" />
    <glyph glyph-name="g" unicode="g" horiz-adv-x="677" 
d="M647 411v-411h-170v18q-28 -10 -57.5 -14.5t-58.5 -4.5q-71 0 -139 27t-122 81t-80.5 121.5t-26.5 138.5t26.5 139t80.5 122t122 81t139 27t139 -27t122 -81l-120 -120q-29 29 -66 43.5t-75 14.5t-75 -14.5t-66 -43.5t-44 -66t-15 -75t15 -75t44 -66q26 -26 58.5 -40.5
t67 -17t68.5 6.5t63 30v37h-147v169h317z" />
    <glyph glyph-name="h" unicode="h" horiz-adv-x="618" 
d="M414 734h169v-734h-169v277h-212v-277h-169v734h169v-288h212v288z" />
    <glyph glyph-name="i" unicode="i" horiz-adv-x="269" 
d="M219 0h-169v735h169v-735z" />
    <glyph glyph-name="j" unicode="j" horiz-adv-x="599" 
d="M549 746v-469q0 -58 -22.5 -108.5t-60 -88t-88 -59t-107.5 -21.5h-3q-57 1 -107 22.5t-90 61.5q-39 40 -59.5 90.5t-19.5 107.5l169 -2q0 -45 31 -78q33 -33 78 -33q22 0 42 8t35 23t24 35t9 43v468h169z" />
    <glyph glyph-name="k" unicode="k" horiz-adv-x="660" 
d="M699 735l-377 -368l377 -367h-244l-236 231v-231h-169v735h169v-232l237 232h243z" />
    <glyph glyph-name="l" unicode="l" horiz-adv-x="506" 
d="M487 0h-437v735h169v-566h268v-169z" />
    <glyph glyph-name="m" unicode="m" horiz-adv-x="758" 
d="M540 735h174l43 -735h-169l-18 300l-102 -300h-169l-108 312l-20 -312h-170l47 735h174l161 -460z" />
    <glyph glyph-name="n" unicode="n" horiz-adv-x="685" 
d="M473 734h169v-734h-183l-240 428v-428h-169v732h184l239 -427v429z" />
    <glyph glyph-name="o" unicode="o" horiz-adv-x="735" 
d="M367 735q76 0 143 -29t117 -78.5t79 -116.5t29 -143t-29 -143t-79 -116.5t-117 -78.5t-143 -29t-143 29t-116.5 78.5t-78.5 116.5t-29 143t29 143t78.5 116.5t116.5 78.5t143 29zM367 170q41 0 77 15.5t63 42.5t42.5 63t15.5 77t-15.5 77t-42.5 63t-63 42.5t-77 15.5
t-77 -15.5t-63 -42.5t-42.5 -63t-15.5 -77t15.5 -77t42.5 -63t63 -42.5t77 -15.5z" />
    <glyph glyph-name="p" unicode="p" horiz-adv-x="572" 
d="M522 425q0 -63 -23.5 -118.5t-65 -97.5t-96.5 -66.5t-118 -25.5v-117h-169v734h169q63 -1 118 -26t96.5 -67t65 -97.5t23.5 -118.5zM219 286q28 1 52.5 12.5t42.5 30t28.5 43.5t10.5 53t-10.5 53t-28.5 43.5t-42.5 30t-52.5 12.5v-278z" />
    <glyph glyph-name="q" unicode="q" horiz-adv-x="711" 
d="M721 367q0 -75 -28 -140.5t-77 -115.5l43 -62l-139 -96l-47 67q-28 -9 -57.5 -14t-60.5 -5q-76 0 -142.5 29t-116 78.5t-78.5 116t-29 142.5t29 142.5t78.5 116t116 78.5t142.5 29t142.5 -29t116 -78.5t78.5 -116t29 -142.5zM355 170q10 0 15 1l-86 125l140 96l93 -136
q17 23 26 51.5t9 59.5q0 40 -15.5 76t-42 63t-62.5 42.5t-77 15.5t-77 -15.5t-62.5 -42.5t-42 -63t-15.5 -76q0 -41 15.5 -77t42 -62.5t62.5 -42t77 -15.5z" />
    <glyph glyph-name="r" unicode="r" horiz-adv-x="613" 
d="M272 190q-13 -2 -26 -3l-27 -2v-185h-169v732h169q63 -1 118 -23t96.5 -59t65 -86t23.5 -105q0 -59 -25 -109.5t-70 -87.5l162 -262h-199zM219 355q27 1 51.5 9.5t43 22.5t29 32.5t10.5 39.5t-10.5 39t-29 32t-43 22.5t-51.5 9.5v-207z" />
    <glyph glyph-name="s" unicode="s" horiz-adv-x="537" 
d="M268 -14q-35 0 -69.5 9.5t-65.5 29.5q-54 35 -84 90.5t-30 121.5h169q0 -30 13 -46.5t23 -22.5q18 -12 39 -13t41 8q14 6 22.5 15t13 17.5t5.5 16.5t1 13t-1 13t-5.5 17t-13 17.5t-22.5 15.5q-11 5 -23.5 9t-26.5 9q-25 8 -52 18t-54 27q-35 22 -59 55t-34.5 71t-7 78.5
t22.5 77.5q18 34 45 59t60 39.5t71 17.5t77 -7q38 -9 69 -28.5t53.5 -47t34.5 -61.5t12 -71h-169q0 23 -14.5 32t-25.5 12q-2 0 -9.5 1.5t-17 0t-19.5 -7t-16 -17.5q-8 -16 -3 -33.5t20 -27.5q14 -8 31 -14.5t36 -12.5q17 -5 34.5 -11t35.5 -14q66 -30 103.5 -88t37.5 -129
q0 -70 -37.5 -128t-103.5 -88q-26 -12 -53 -17.5t-54 -5.5z" />
    <glyph glyph-name="t" unicode="t" horiz-adv-x="493" 
d="M471 737v-170h-141v-567h-169v567h-140v170h450z" />
    <glyph glyph-name="u" unicode="u" horiz-adv-x="658" 
d="M329 0q-56 0 -106 20.5t-89 58.5q-40 40 -61.5 90t-22.5 107v459h169v-458q0 -44 33 -77q33 -31 78 -31q22 0 42 9t35 24t23 35t8 43v455h169v-454q1 -57 -20.5 -108t-59 -89t-88 -60.5t-107.5 -23.5h-3z" />
    <glyph glyph-name="v" unicode="v" horiz-adv-x="562" 
d="M427 740h179l-250 -740h-160l-237 740h178l141 -454z" />
    <glyph glyph-name="w" unicode="w" horiz-adv-x="917" 
d="M770 739h177l-217 -739h-167l-97 368l-84 -368h-168l-244 739h178l136 -409l93 409h166l108 -407z" />
    <glyph glyph-name="x" unicode="x" horiz-adv-x="663" 
d="M643 740l-216 -358l235 -382h-199l-134 218l-132 -218h-197l229 381l-220 359h198l121 -196l117 196h198z" />
    <glyph glyph-name="y" unicode="y" horiz-adv-x="698" 
d="M164 0l85 208l-251 532h187l151 -319l129 319h183l-301 -740h-183z" />
    <glyph glyph-name="z" unicode="z" horiz-adv-x="653" 
d="M599 0h-586l307 570h-267v170l550 -1l-307 -570h303v-169z" />
    <glyph glyph-name="braceleft" unicode="{" horiz-adv-x="353" 
d="M303 0h-253v735h253v-169h-84v-397h84v-169z" />
    <glyph glyph-name="braceright" unicode="}" horiz-adv-x="353" 
d="M303 0h-253v169h84v397h-84v169h253v-735z" />
    <glyph glyph-name="asciitilde" unicode="~" horiz-adv-x="582" 
d="M532 282l-482 1v169l482 -1v-169z" />
    <glyph glyph-name="Adieresis" unicode="&#xc4;" 
d="M469 0l-29 89h-231l-30 -89h-179l249 734h161l237 -734h-178zM267 258h118l-57 178zM286 946v-151h-152v151h152zM513 946v-151h-152v151h152z" />
    <glyph glyph-name="Aring" unicode="&#xc5;" horiz-adv-x="647" 
d="M647 0h-178l-29 89h-231l-30 -89h-179l229 673q-32 20 -53.5 52t-26.5 73q-5 36 5 69.5t30.5 60.5t50.5 44.5t66 22.5q6 1 11.5 1.5t11.5 0.5q33 0 62.5 -11.5t52.5 -32t38.5 -48.5t20.5 -61q7 -50 -12.5 -93.5t-57.5 -71.5zM319 855q-14 -2 -23 -13.5t-7 -25.5
q2 -13 11.5 -21.5t22.5 -8.5h5q14 2 23 13.5t7 25.5t-11.5 22.5t-22.5 8.5q-3 0 -5 -1zM386 258l-58 178l-61 -178h119z" />
    <glyph glyph-name="Agrave" unicode="&#xc0;" 
d="M470 0h178l-237 734h-161l-249 -734h179l30 89h231zM268 258l61 178l57 -178h-118zM401 795h-152l-81 169h151z" />
    <glyph glyph-name="Aacute" unicode="&#xc1;" horiz-adv-x="647" 
d="M469 0l-29 89h-231l-30 -89h-179l249 734h161l237 -734h-178zM267 258h118l-57 178zM262 795l81 169h152l-81 -169h-152z" />
    <glyph glyph-name="Acircumflex" unicode="&#xc2;" horiz-adv-x="647" 
d="M469 0l-29 89h-231l-30 -89h-179l249 734h161l237 -734h-178zM267 258h118l-58 178zM512 795h-152l-37 76l-36 -76h-152l82 169h62v0h44h45v0h62z" />
    <glyph glyph-name="Atilde" unicode="&#xc3;" 
d="M470 0l-29 89h-231l-30 -89h-179l249 734h161l237 -734h-178zM268 258h118l-57 178zM135 946h379v-151h-379v151z" />
    <glyph glyph-name="AE" unicode="&#xc6;" horiz-adv-x="979" 
d="M469 0l-29 89h-231l-30 -89h-179l249 734h161l237 -734h-178zM267 258h118l-58 178zM940 565h-302v-111h245v-169h-245v-116h302v-169h-471v734h471v-169z" />
    <glyph glyph-name="Ccedilla" unicode="&#xc7;" horiz-adv-x="628" 
d="M628 105q-46 -45 -101.5 -71t-115.5 -34l-62 -129h-152l68 141q-44 13 -83.5 36t-73.5 57q-53 53 -80.5 119.5t-27.5 140.5q0 75 27.5 141.5t80.5 118.5q54 54 121.5 81t138 27t138.5 -27t122 -81l-120 -119q-29 29 -65.5 43.5t-74.5 14.5t-75 -14.5t-66 -43.5
q-28 -29 -43 -65t-15 -76t15 -75.5t43 -64.5q29 -29 66 -43.5t75 -14.5t74.5 14.5t65.5 43.5z" />
    <glyph glyph-name="Egrave" unicode="&#xc8;" horiz-adv-x="554" 
d="M514 565v169h-471v-734h471v169h-302v116h245v169h-245v111h302zM350 795h-138l-95 169h152z" />
    <glyph glyph-name="Eacute" unicode="&#xc9;" horiz-adv-x="544" 
d="M508 565h-302v-111h245v-169h-245v-116h302v-169h-471v734h471v-169zM193 795l81 169h152l-82 -169h-151z" />
    <glyph glyph-name="Ecircumflex" unicode="&#xca;" horiz-adv-x="550" 
d="M463 795h-152l-37 76l-36 -76h-152l82 169h62v0h44h45v0h62zM510 565h-302v-111h245v-169h-245v-116h302v-169h-471v734h471v-169z" />
    <glyph glyph-name="Edieresis" unicode="&#xcb;" horiz-adv-x="548" 
d="M511 565h-302v-111h245v-169h-245v-116h302v-169h-471v734h471v-169zM237 946v-151h-151v151h151zM465 946v-151h-152v151h152z" />
    <glyph glyph-name="Igrave" unicode="&#xcc;" horiz-adv-x="343" 
d="M124 0h169v735h-169v-735zM283 795h-152l-81 170h151z" />
    <glyph glyph-name="Iacute" unicode="&#xcd;" horiz-adv-x="343" 
d="M219 0h-169v735h169v-735zM60 795l81 170h152l-81 -170h-152z" />
    <glyph glyph-name="Icircumflex" unicode="&#xce;" horiz-adv-x="479" 
d="M321 0h-169v735h169v-735v0zM424 795h-151l-37 76l-36 -76h-152l81 169h62v0h45h45v0h62z" />
    <glyph glyph-name="Idieresis" unicode="&#xcf;" horiz-adv-x="479" 
d="M324 1h-169v735h169v-735zM202 948v-152h-152v152h152zM429 948v-152h-151v152h151z" />
    <glyph glyph-name="Ntilde" unicode="&#xd1;" horiz-adv-x="692" 
d="M473 734h169v-734h-183l-240 428v-428h-169v732h184l239 -427v429zM536 946v-152h-380v152h380z" />
    <glyph glyph-name="Ograve" unicode="&#xd2;" horiz-adv-x="734" 
d="M367 735q76 0 143 -29t117 -79t79 -117t29 -143t-29 -142.5t-79 -116.5t-117 -79t-143 -29t-143 29t-116.5 79t-78.5 116.5t-29 142.5t29 143t78.5 117t116.5 79t143 29zM367 169q41 0 77 15.5t63 42.5t42.5 63t15.5 77t-15.5 77.5t-42.5 63.5t-63 42.5t-77 15.5
t-77 -15.5t-63 -42.5t-42.5 -63.5t-15.5 -77.5t15.5 -77t42.5 -63t63 -42.5t77 -15.5zM293 795l-82 170h152l81 -170h-151z" />
    <glyph glyph-name="Oacute" unicode="&#xd3;" horiz-adv-x="736" 
d="M368 735q76 0 143 -29t117 -79t79 -117t29 -143t-29 -143t-79 -116.5t-117 -78.5t-143 -29t-143 29t-116.5 78.5t-78.5 116.5t-29 143t29 143t78.5 117t116.5 79t143 29zM368 169q41 0 77 15.5t63 42.5t42.5 63t15.5 77t-15.5 77t-42.5 63t-63 42.5t-77 15.5t-77 -15.5
t-63 -42.5t-42.5 -63t-15.5 -77t15.5 -77t42.5 -63t63 -42.5t77 -15.5zM373 965h151l-81 -170h-152z" />
    <glyph glyph-name="Ocircumflex" unicode="&#xd4;" horiz-adv-x="735" 
d="M367 735q76 0 143 -29t117 -78.5t79 -116.5t29 -143t-29 -143t-79 -117t-117 -79t-143 -29t-143 29t-116.5 79t-78.5 117t-29 143t29 143t78.5 116.5t116.5 78.5t143 29zM367 170q41 0 77 15.5t63 42.5t42.5 63t15.5 77t-15.5 77t-42.5 63t-63 42.5t-77 15.5t-77 -15.5
t-63 -42.5t-42.5 -63t-15.5 -77t15.5 -77t42.5 -63t63 -42.5t77 -15.5zM404 795l-37 77l-36 -77h-152l82 170h62h44h45h62l82 -170h-152z" />
    <glyph glyph-name="Otilde" unicode="&#xd5;" horiz-adv-x="734" 
d="M368 736q76 0 143 -29t116.5 -78.5t78.5 -116.5t29 -143t-29 -143t-78.5 -116.5t-116.5 -78.5t-143 -29t-143 29t-116.5 78.5t-78.5 116.5t-29 143t29 143t78.5 116.5t116.5 78.5t143 29zM368 171q41 0 77 15.5t63 42.5t42.5 63t15.5 77t-15.5 77t-42.5 63t-63 42.5
t-77 15.5t-77 -15.5t-63 -42.5t-42.5 -63t-15.5 -77t15.5 -77t42.5 -63t63 -42.5t77 -15.5zM558 796h-380v152h380v-152z" />
    <glyph glyph-name="Odieresis" unicode="&#xd6;" horiz-adv-x="734" 
d="M366 736q76 0 143 -29t117 -79t79 -117t29 -143t-29 -142.5t-79 -116.5t-117 -79t-143 -29t-143 29t-116.5 79t-78.5 116.5t-29 142.5t29 143t78.5 117t116.5 79t143 29zM366 170q41 0 77 15.5t63 42.5t42.5 63t15.5 77t-15.5 77.5t-42.5 63.5t-63 42.5t-77 15.5
t-77 -15.5t-63 -42.5t-42.5 -63.5t-15.5 -77.5t15.5 -77t42.5 -63t63 -42.5t77 -15.5zM328 796h-151v151h151v-151zM556 796h-152v151h152v-151z" />
    <glyph glyph-name="multiply" unicode="&#xd7;" horiz-adv-x="745" 
d="M695 525l-203 -203l203 -202l-120 -120l-203 203l-202 -203l-120 120l203 203l-203 202l120 120l203 -203l202 203z" />
    <glyph glyph-name="Oslash" unicode="&#xd8;" horiz-adv-x="736" 
d="M681 560q33 -53 46 -113t6.5 -120t-33 -116.5t-72.5 -102.5t-102.5 -72.5t-116.5 -33t-120.5 6.5t-113.5 46l-49 -50l-120 120l50 49q-33 53 -46 113.5t-6.5 120.5t33 116.5t72.5 102.5t102.5 72.5t116.5 33t120 -6.5t113 -46l50 49l119 -119zM228 507q-42 -42 -53.5 -98
t7.5 -108l253 253q-53 19 -109 7t-98 -54zM508 227q42 42 54 98t-7 109l-254 -253q53 -19 109 -7.5t98 53.5z" />
    <glyph glyph-name="Ugrave" unicode="&#xd9;" horiz-adv-x="659" 
d="M608 745v-464q0 -57 -21 -108t-58.5 -89t-88 -60.5t-108.5 -23.5h-3q-56 0 -106 20.5t-89 59.5q-40 39 -61.5 89t-22.5 107v469h169v-468q2 -46 33 -77q33 -31 78 -31q22 0 42 9t35 24t23 35t8 43v465h170zM260 819l-82 170h152l81 -170h-151z" />
    <glyph glyph-name="Uacute" unicode="&#xda;" horiz-adv-x="659" 
d="M608 745v-464q0 -57 -21 -108t-58.5 -89t-88 -60.5t-108.5 -23.5h-3q-56 0 -106 20.5t-89 59.5q-40 39 -61.5 89t-22.5 107v469h169v-468q2 -46 33 -77q33 -31 78 -31q22 0 42 9t35 24t23 35t8 43v465h170zM412 819h-152l82 170h151z" />
    <glyph glyph-name="Ucircumflex" unicode="&#xdb;" horiz-adv-x="659" 
d="M364 797l-36 76l-37 -76h-152l82 169h62h45h44h62l82 -169h-152zM606 747v-465q1 -57 -20.5 -107.5t-59 -89t-88 -61t-107.5 -22.5h-3q-56 0 -106 20.5t-89 58.5q-40 39 -61.5 89.5t-22.5 106.5v470h169v-469q0 -43 33 -76q16 -15 36 -23.5t42 -7.5q22 0 42 9t35 24
t23 35t8 43v465h169z" />
    <glyph glyph-name="Udieresis" unicode="&#xdc;" horiz-adv-x="659" 
d="M608 745v-464q0 -57 -21 -108t-58.5 -89t-88 -60.5t-108.5 -23.5h-3q-56 0 -106 20.5t-89 59.5q-40 39 -61.5 89t-22.5 107v469h169v-468q2 -46 33 -77q33 -31 78 -31q22 0 42 9t35 24t23 35t8 43v465h170zM291 818h-152v152h152v-152zM518 818h-151v152h151v-152z" />
    <glyph glyph-name="germandbls" unicode="&#xdf;" horiz-adv-x="594" 
d="M443 438q47 -35 74 -84.5t27 -107.5q0 -47 -18.5 -89t-51 -75t-76 -54.5t-94.5 -28.5v172q31 9 51 29.5t20 45.5q0 16 -9 31t-24 26t-35.5 17.5t-43.5 6.5h-18h-2h-26l1 -379h-170v785l195 -1q46 0 87 -16t72 -43.5t48.5 -64t17.5 -78.5q0 -50 -25 -92zM244 496
q25 1 40 12t15 22q0 10 -15 21.5t-41 11.5h-26v-67h27z" />
    <glyph glyph-name="copyright" unicode="&#xa9;" horiz-adv-x="373" 
d="M213 498q-34 0 -65.5 12t-56.5 38q-51 51 -51 122q0 35 13 66.5t38 55.5q25 25 57 38t65 13t64.5 -13t57.5 -38l-56 -56q-14 13 -31 20t-35 7t-35.5 -7t-30.5 -20q-28 -28 -28 -66t28 -66q13 -14 30.5 -20.5t35.5 -6.5t35 6.5t31 20.5l56 -56q-26 -26 -57.5 -38
t-64.5 -12z" />
    <glyph glyph-name="registered" unicode="&#xae;" horiz-adv-x="331" 
d="M144 588q-12 -3 -25 -3v-87h-79v344h79q30 0 56 -10.5t45.5 -27.5t30.5 -40.5t11 -49.5q0 -28 -12 -52t-33 -41l76 -123h-93zM119 665q26 1 44.5 15t18.5 34q0 19 -18.5 33t-44.5 15v-97z" />
    <glyph glyph-name="paragraph" unicode="&#xb6;" horiz-adv-x="667" 
d="M572 563v-565h-169v565h-35v-565h-169v324q-35 8 -65 27t-52 46t-34.5 60.5t-12.5 71.5q0 37 12.5 71t34.5 61t52 46t65 27v1h169h35h169h53v-170h-53z" />
    <glyph glyph-name="mu" unicode="&#xb5;" horiz-adv-x="626" 
d="M591 0h-169v22q-50 -22 -106 -22h-3q-57 0 -110 22v-253h-169v976h169v-468q0 -45 33 -76q32 -32 78 -32q22 0 42 9t35 24t23 35t8 43v465h169v-745z" />
    <glyph glyph-name="yen" unicode="&#xa5;" horiz-adv-x="588" 
d="M553 286h-176v-27h176v-167h-176v-92h-167l1 92l-175 1v166h175v27h-175v167h113l-125 280h183l87 -195l87 195h183l-125 -280h114v-167v0z" />
    <glyph glyph-name="perthousand" unicode="&#x2030;" horiz-adv-x="1242" 
d="M783 630l-580 -640l-125 114l580 640zM206 387q-33 0 -62.5 11.5t-53 32t-39.5 48.5t-20 61q-5 36 5 70t30.5 60.5t50.5 44.5t66 23q6 1 11.5 1h11.5q33 0 62.5 -11.5t53 -31.5t39 -48.5t19.5 -61.5q5 -36 -4.5 -69.5t-30 -60t-50.5 -44.5t-66 -23q-6 -1 -12 -1.5
t-11 -0.5zM201 598q-14 -2 -23 -13.5t-7 -25.5t11.5 -22.5t23.5 -8.5q3 0 4 1q14 2 23 13.5t7 25.5q-2 13 -11.5 21.5t-22.5 8.5h-5zM829 197q5 -36 -4.5 -69.5t-30 -60t-50.5 -44.5t-66 -23q-6 -1 -12 -1.5t-12 -0.5q-33 0 -62.5 11.5t-52.5 32t-39 48.5t-20 61
q-5 36 4.5 70t30 60.5t51 44.5t66.5 23q5 1 11 1h12q33 0 62.5 -11.5t52.5 -31.5t38.5 -48.5t20.5 -61.5zM659 140q14 2 23 13.5t7 25.5q-2 13 -11.5 21.5t-22.5 8.5h-5q-14 -2 -23 -13.5t-7 -25.5t11.5 -22.5t22.5 -8.5q4 0 5 1zM1204 197q4 -36 -5.5 -69.5t-30 -60
t-50.5 -44.5t-66 -23q-5 -1 -11 -1.5t-12 -0.5q-33 0 -62.5 11.5t-52.5 32t-39 48.5t-20 61q-5 36 4.5 70t30 60.5t50.5 44.5t66 23q6 1 12 1h12q33 0 62.5 -11.5t52.5 -31.5t38.5 -48.5t20.5 -61.5zM1034 140q14 2 23 13.5t7 25.5q-2 13 -11.5 21.5t-22.5 8.5h-5
q-14 -2 -23 -13.5t-7 -25.5t11.5 -22.5t22.5 -8.5q3 0 5 1z" />
    <glyph glyph-name="trademark" unicode="&#x2122;" horiz-adv-x="637" 
d="M567 843l20 -345h-79l-9 140l-48 -140h-79l-51 146l-9 -146h-80l17 266h-54v-267h-79v267h-66v79h211v0h75l75 -216l74 216h82v0z" />
    <glyph glyph-name="sterling" unicode="&#xa3;" horiz-adv-x="646" 
d="M596 171v-171h-546v156l10 5q74 38 95 88h-105v171h62q-12 37 -12 73q0 51 19.5 96.5t53 79t79 53t96.5 19.5t96 -19.5t79 -53t53.5 -79t19.5 -96.5h-171q0 32 -22.5 54.5t-54.5 22.5q-16 0 -30.5 -6t-25 -16.5t-16.5 -24.5t-6 -30q0 -5 3.5 -17.5t16.5 -32.5
q2 -3 12 -23h169v-171h-141q-2 -8 -3.5 -17t-3.5 -18q-3 -11 -7 -21.5t-9 -21.5h289z" />
    <glyph glyph-name="cent" unicode="&#xa2;" horiz-adv-x="541" 
d="M541 148q-33 -32 -72.5 -53.5t-81.5 -30.5v-64h-153l1 67q-39 11 -75 31t-67 50q-45 45 -69 103t-24 121q0 64 24 121.5t69 102.5q31 31 67 51t75 31v64h152v-61q42 -10 81.5 -31t72.5 -54l-103 -103q-25 25 -56.5 37.5t-64.5 12.5t-64.5 -12.5t-56.5 -37.5
q-24 -24 -37 -55t-13 -66q0 -34 13 -65t37 -56q25 -25 56.5 -37.5t64.5 -12.5t64.5 12.5t56.5 37.5l103 -103v0z" />
    <glyph glyph-name="section" unicode="&#xa7;" horiz-adv-x="448" 
d="M374 285q34 -46 34 -106q0 -54 -28.5 -97.5t-78.5 -66.5q-37 -17 -81 -17q-56 0 -102 30q-41 26 -64 68t-23 92h129q0 -23 9.5 -35t17.5 -17q28 -18 61 -4q22 10 27 25t5 22q0 8 -5 22.5t-27 25.5q-8 4 -18 7t-21 7q-18 5 -38.5 12.5t-40.5 20.5q-27 17 -45 42t-26 54
t-5.5 59.5t17.5 58.5q2 5 4.5 8.5t4.5 7.5q-31 38 -37 86.5t17 93.5q13 26 34 45t46 29.5t53.5 13t58.5 -4.5q28 -7 52 -22t40.5 -35.5t26 -46.5t9.5 -54h-129q0 17 -11 24t-19 9q-1 0 -6.5 1t-13 0t-15 -5t-12.5 -13q-6 -12 -2 -25.5t15 -20.5t24 -11.5l27 -9.5
q13 -4 26 -8.5t27 -10.5q50 -23 78.5 -66.5t28.5 -97.5q0 -25 -6.5 -47.5t-17.5 -42.5zM198 383q10 -6 23 -10.5l28 -9.5q4 -2 8 -3t9 -3q2 5 2.5 10t0.5 8q0 8 -5 22.5t-27 24.5q-8 4 -17.5 7t-20.5 7q-6 2 -8 2q-2 -2 -3.5 -4t-2.5 -5q-7 -11 -3 -24.5t16 -21.5z" />
    <glyph glyph-name="bullet" unicode="&#x2022;" horiz-adv-x="234" 
d="M117 279q-36 0 -61.5 25.5t-25.5 61.5q0 37 25.5 62.5t61.5 25.5t61.5 -25.5t25.5 -62.5q0 -36 -25.5 -61.5t-61.5 -25.5z" />
    <glyph glyph-name="bar" unicode="|" horiz-adv-x="269" 
d="M219 0h-169v743h169v-743z" />
    <glyph glyph-name="divide" unicode="&#xf7;" horiz-adv-x="482" 
d="M241 482q-36 0 -61.5 25.5t-25.5 62.5q0 36 25.5 61.5t61.5 25.5t61.5 -25.5t25.5 -61.5q0 -37 -25.5 -62.5t-61.5 -25.5zM241 255q36 0 61.5 -25.5t25.5 -61.5t-25.5 -61.5t-61.5 -25.5t-61.5 25.5t-25.5 61.5t25.5 61.5t61.5 25.5zM482 284h-482v170l482 -1v-169z" />
    <glyph glyph-name="Euro" unicode="&#x20ac;" horiz-adv-x="614" 
d="M457 569q-32 0 -60.5 -9.5t-52.5 -26.5l139 1l1 -155l-226 -1v-9v-9l225 1l1 -155l-141 -1q24 -17 53 -26.5t61 -9.5h107v-169h-107q-54 0 -103.5 15t-92.5 42t-77 64.5t-57 82.5h-76l-1 155h38v10v8h-37l-1 155h77q22 46 56 84t77 65t93 42t104 15h107v-169h-107z" />
    <glyph glyph-name="quotesinglbase" unicode="&#x201a;" horiz-adv-x="255" 
d="M0 -107l81 198h144l-81 -198h-144z" />
    <glyph glyph-name="questiondown" unicode="&#xbf;" horiz-adv-x="584" 
d="M534 301v-51q0 -68 -32.5 -124.5t-89.5 -91.5q-29 -17 -59.5 -25.5t-62.5 -8.5q-29 0 -57.5 7t-54.5 22q-56 30 -89 80.5t-38 110.5q-4 63 27 121.5t91 102.5q14 10 24.5 32t10.5 42h169q0 -30 -7.5 -60.5t-21.5 -58.5t-33 -51.5t-43 -40.5q-50 -37 -48 -76q3 -34 39 -54
q22 -11 39.5 -7t27.5 9q18 11 28.5 30t10.5 41v51h169zM287 571q-35 0 -60 25t-25 61q0 35 25 60t60 25q18 0 33.5 -6.5t27 -18t18.5 -27t7 -33.5t-7 -33.5t-18.5 -27.5t-27 -18.5t-33.5 -6.5z" />
    <glyph glyph-name="endash" unicode="&#x2013;" horiz-adv-x="589" 
d="M532 282l-482 1v169l482 -1v-169z" />
    <glyph glyph-name="emdash" unicode="&#x2014;" horiz-adv-x="589" 
d="M532 282l-482 1v169l482 -1v-169z" />
    <glyph glyph-name="quotedblright" unicode="&#x201d;" horiz-adv-x="485" 
d="M50 397v336h169v-336h-169zM266 733h169v-336h-169v336z" />
    <glyph glyph-name="quotedblleft" unicode="&#x201c;" horiz-adv-x="485" 
d="M50 397v336h169v-336h-169zM266 733h169v-336h-169v336z" />
    <glyph glyph-name="quoteright" unicode="&#x2019;" horiz-adv-x="269" 
d="M50 733h169v-336h-169v336z" />
    <glyph glyph-name="quoteleft" unicode="&#x2018;" horiz-adv-x="269" 
d="M50 733h169v-336h-169v336z" />
    <glyph glyph-name="currency" unicode="&#xa4;" horiz-adv-x="669" 
d="M641 367q0 -42 -11 -81t-31 -74l70 -69l-111 -111l-70 70q-35 -20 -73.5 -31t-80.5 -11q-41 0 -80 11t-74 31l-70 -70l-110 111l69 69q-41 71 -41 155q0 83 41 154l-69 70l110 110l70 -69q71 41 154 41q84 0 155 -41l69 69l111 -110l-70 -70q20 -35 31 -74t11 -80z
M488 367q0 63 -45 108t-109 45q-63 0 -108 -45t-45 -108q0 -64 45 -109t108 -45q64 0 109 45t45 109z" />
    <glyph glyph-name="oe" unicode="&#x153;" horiz-adv-x="1088" 
d="M367 732q76 0 143 -29t117 -79t79 -117t29 -143t-29 -143t-79 -116.5t-117 -78.5t-143 -29t-143 29t-116.5 78.5t-78.5 116.5t-29 143t29 143t78.5 117t116.5 79t143 29zM367 166q41 0 77 15.5t63 42.5t42.5 63t15.5 77t-15.5 77t-42.5 63t-63 42.5t-77 15.5t-77 -15.5
t-63 -42.5t-42.5 -63t-15.5 -77t15.5 -77t42.5 -63t63 -42.5t77 -15.5zM733 565v-111h245v-169h-245v-116h301v-169h-470v734h470v-169h-301z" />
    <glyph glyph-name="OE" unicode="&#x152;" horiz-adv-x="1088" 
d="M367 732q76 0 143 -29t117 -79t79 -117t29 -143t-29 -143t-79 -116.5t-117 -78.5t-143 -29t-143 29t-116.5 78.5t-78.5 116.5t-29 143t29 143t78.5 117t116.5 79t143 29zM367 166q41 0 77 15.5t63 42.5t42.5 63t15.5 77t-15.5 77t-42.5 63t-63 42.5t-77 15.5t-77 -15.5
t-63 -42.5t-42.5 -63t-15.5 -77t15.5 -77t42.5 -63t63 -42.5t77 -15.5zM733 565v-111h245v-169h-245v-116h301v-169h-470v734h470v-169h-301z" />
    <glyph glyph-name="exclamdown" unicode="&#xa1;" horiz-adv-x="275" 
d="M137 559q-36 0 -61.5 25.5t-25.5 61.5t25.5 61.5t61.5 25.5t61.5 -25.5t25.5 -61.5t-25.5 -61.5t-61.5 -25.5zM222 480v-495h-170v495h170z" />
    <glyph glyph-name="ydieresis" unicode="&#xff;" horiz-adv-x="698" 
d="M164 0l85 208l-251 532h187l151 -319l129 319h183l-301 -740h-183z" />
    <glyph glyph-name="agrave" unicode="&#xe0;" 
d="M470 0h178l-237 734h-161l-249 -734h179l30 89h231zM268 258l61 178l57 -178h-118zM401 795h-152l-81 169h151z" />
    <glyph glyph-name="aacute" unicode="&#xe1;" horiz-adv-x="647" 
d="M469 0l-29 89h-231l-30 -89h-179l249 734h161l237 -734h-178zM267 258h118l-57 178zM262 795l81 169h152l-81 -169h-152z" />
    <glyph glyph-name="acircumflex" unicode="&#xe2;" horiz-adv-x="647" 
d="M469 0l-29 89h-231l-30 -89h-179l249 734h161l237 -734h-178zM267 258h118l-58 178zM512 795h-152l-37 76l-36 -76h-152l82 169h62v0h44h45v0h62z" />
    <glyph glyph-name="atilde" unicode="&#xe3;" 
d="M470 0l-29 89h-231l-30 -89h-179l249 734h161l237 -734h-178zM268 258h118l-57 178zM135 946h379v-151h-379v151z" />
    <glyph glyph-name="adieresis" unicode="&#xe4;" 
d="M469 0l-29 89h-231l-30 -89h-179l249 734h161l237 -734h-178zM267 258h118l-57 178zM286 946v-151h-152v151h152zM513 946v-151h-152v151h152z" />
    <glyph glyph-name="aring" unicode="&#xe5;" horiz-adv-x="647" 
d="M647 0h-178l-29 89h-231l-30 -89h-179l229 673q-32 20 -53.5 52t-26.5 73q-5 36 5 69.5t30.5 60.5t50.5 44.5t66 22.5q6 1 11.5 1.5t11.5 0.5q33 0 62.5 -11.5t52.5 -32t38.5 -48.5t20.5 -61q7 -50 -12.5 -93.5t-57.5 -71.5zM319 855q-14 -2 -23 -13.5t-7 -25.5
q2 -13 11.5 -21.5t22.5 -8.5h5q14 2 23 13.5t7 25.5t-11.5 22.5t-22.5 8.5q-3 0 -5 -1zM386 258l-58 178l-61 -178h119z" />
    <glyph glyph-name="ae" unicode="&#xe6;" horiz-adv-x="979" 
d="M469 0l-29 89h-231l-30 -89h-179l249 734h161l237 -734h-178zM267 258h118l-58 178zM940 565h-302v-111h245v-169h-245v-116h302v-169h-471v734h471v-169z" />
    <glyph glyph-name="ccedilla" unicode="&#xe7;" horiz-adv-x="628" 
d="M628 105q-46 -45 -101.5 -71t-115.5 -34l-62 -129h-152l68 141q-44 13 -83.5 36t-73.5 57q-53 53 -80.5 119.5t-27.5 140.5q0 75 27.5 141.5t80.5 118.5q54 54 121.5 81t138 27t138.5 -27t122 -81l-120 -119q-29 29 -65.5 43.5t-74.5 14.5t-75 -14.5t-66 -43.5
q-28 -29 -43 -65t-15 -76t15 -75.5t43 -64.5q29 -29 66 -43.5t75 -14.5t74.5 14.5t65.5 43.5z" />
    <glyph glyph-name="egrave" unicode="&#xe8;" horiz-adv-x="554" 
d="M514 565v169h-471v-734h471v169h-302v116h245v169h-245v111h302zM350 795h-138l-95 169h152z" />
    <glyph glyph-name="eacute" unicode="&#xe9;" horiz-adv-x="544" 
d="M508 565h-302v-111h245v-169h-245v-116h302v-169h-471v734h471v-169zM193 795l81 169h152l-82 -169h-151z" />
    <glyph glyph-name="ecircumflex" unicode="&#xea;" horiz-adv-x="550" 
d="M463 795h-152l-37 76l-36 -76h-152l82 169h62v0h44h45v0h62zM510 565h-302v-111h245v-169h-245v-116h302v-169h-471v734h471v-169z" />
    <glyph glyph-name="edieresis" unicode="&#xeb;" horiz-adv-x="548" 
d="M511 565h-302v-111h245v-169h-245v-116h302v-169h-471v734h471v-169zM237 946v-151h-151v151h151zM465 946v-151h-152v151h152z" />
    <glyph glyph-name="igrave" unicode="&#xec;" horiz-adv-x="343" 
d="M124 0h169v735h-169v-735zM283 795h-152l-81 170h151z" />
    <glyph glyph-name="iacute" unicode="&#xed;" horiz-adv-x="343" 
d="M219 0h-169v735h169v-735zM60 795l81 170h152l-81 -170h-152z" />
    <glyph glyph-name="icircumflex" unicode="&#xee;" horiz-adv-x="479" 
d="M321 0h-169v735h169v-735v0zM424 795h-151l-37 76l-36 -76h-152l81 169h62v0h45h45v0h62z" />
    <glyph glyph-name="idieresis" unicode="&#xef;" horiz-adv-x="479" 
d="M324 1h-169v735h169v-735zM202 948v-152h-152v152h152zM429 948v-152h-151v152h151z" />
    <glyph glyph-name="ntilde" unicode="&#xf1;" horiz-adv-x="692" 
d="M473 734h169v-734h-183l-240 428v-428h-169v732h184l239 -427v429zM536 946v-152h-380v152h380z" />
    <glyph glyph-name="ograve" unicode="&#xf2;" horiz-adv-x="734" 
d="M367 735q76 0 143 -29t117 -79t79 -117t29 -143t-29 -142.5t-79 -116.5t-117 -79t-143 -29t-143 29t-116.5 79t-78.5 116.5t-29 142.5t29 143t78.5 117t116.5 79t143 29zM367 169q41 0 77 15.5t63 42.5t42.5 63t15.5 77t-15.5 77.5t-42.5 63.5t-63 42.5t-77 15.5
t-77 -15.5t-63 -42.5t-42.5 -63.5t-15.5 -77.5t15.5 -77t42.5 -63t63 -42.5t77 -15.5zM293 795l-82 170h152l81 -170h-151z" />
    <glyph glyph-name="oacute" unicode="&#xf3;" horiz-adv-x="736" 
d="M368 735q76 0 143 -29t117 -79t79 -117t29 -143t-29 -143t-79 -116.5t-117 -78.5t-143 -29t-143 29t-116.5 78.5t-78.5 116.5t-29 143t29 143t78.5 117t116.5 79t143 29zM368 169q41 0 77 15.5t63 42.5t42.5 63t15.5 77t-15.5 77t-42.5 63t-63 42.5t-77 15.5t-77 -15.5
t-63 -42.5t-42.5 -63t-15.5 -77t15.5 -77t42.5 -63t63 -42.5t77 -15.5zM373 965h151l-81 -170h-152z" />
    <glyph glyph-name="ocircumflex" unicode="&#xf4;" horiz-adv-x="735" 
d="M367 735q76 0 143 -29t117 -78.5t79 -116.5t29 -143t-29 -143t-79 -117t-117 -79t-143 -29t-143 29t-116.5 79t-78.5 117t-29 143t29 143t78.5 116.5t116.5 78.5t143 29zM367 170q41 0 77 15.5t63 42.5t42.5 63t15.5 77t-15.5 77t-42.5 63t-63 42.5t-77 15.5t-77 -15.5
t-63 -42.5t-42.5 -63t-15.5 -77t15.5 -77t42.5 -63t63 -42.5t77 -15.5zM404 795l-37 77l-36 -77h-152l82 170h62h44h45h62l82 -170h-152z" />
    <glyph glyph-name="otilde" unicode="&#xf5;" horiz-adv-x="734" 
d="M368 736q76 0 143 -29t116.5 -78.5t78.5 -116.5t29 -143t-29 -143t-78.5 -116.5t-116.5 -78.5t-143 -29t-143 29t-116.5 78.5t-78.5 116.5t-29 143t29 143t78.5 116.5t116.5 78.5t143 29zM368 171q41 0 77 15.5t63 42.5t42.5 63t15.5 77t-15.5 77t-42.5 63t-63 42.5
t-77 15.5t-77 -15.5t-63 -42.5t-42.5 -63t-15.5 -77t15.5 -77t42.5 -63t63 -42.5t77 -15.5zM558 796h-380v152h380v-152z" />
    <glyph glyph-name="odieresis" unicode="&#xf6;" horiz-adv-x="734" 
d="M366 736q76 0 143 -29t117 -79t79 -117t29 -143t-29 -142.5t-79 -116.5t-117 -79t-143 -29t-143 29t-116.5 79t-78.5 116.5t-29 142.5t29 143t78.5 117t116.5 79t143 29zM366 170q41 0 77 15.5t63 42.5t42.5 63t15.5 77t-15.5 77.5t-42.5 63.5t-63 42.5t-77 15.5
t-77 -15.5t-63 -42.5t-42.5 -63.5t-15.5 -77.5t15.5 -77t42.5 -63t63 -42.5t77 -15.5zM328 796h-151v151h151v-151zM556 796h-152v151h152v-151z" />
    <glyph glyph-name="oslash" unicode="&#xf8;" horiz-adv-x="736" 
d="M681 560q33 -53 46 -113t6.5 -120t-33 -116.5t-72.5 -102.5t-102.5 -72.5t-116.5 -33t-120.5 6.5t-113.5 46l-49 -50l-120 120l50 49q-33 53 -46 113.5t-6.5 120.5t33 116.5t72.5 102.5t102.5 72.5t116.5 33t120 -6.5t113 -46l50 49l119 -119zM228 507q-42 -42 -53.5 -98
t7.5 -108l253 253q-53 19 -109 7t-98 -54zM508 227q42 42 54 98t-7 109l-254 -253q53 -19 109 -7.5t98 53.5z" />
    <glyph glyph-name="ugrave" unicode="&#xf9;" horiz-adv-x="659" 
d="M608 745v-464q0 -57 -21 -108t-58.5 -89t-88 -60.5t-108.5 -23.5h-3q-56 0 -106 20.5t-89 59.5q-40 39 -61.5 89t-22.5 107v469h169v-468q2 -46 33 -77q33 -31 78 -31q22 0 42 9t35 24t23 35t8 43v465h170zM260 819l-82 170h152l81 -170h-151z" />
    <glyph glyph-name="uacute" unicode="&#xfa;" horiz-adv-x="659" 
d="M608 745v-464q0 -57 -21 -108t-58.5 -89t-88 -60.5t-108.5 -23.5h-3q-56 0 -106 20.5t-89 59.5q-40 39 -61.5 89t-22.5 107v469h169v-468q2 -46 33 -77q33 -31 78 -31q22 0 42 9t35 24t23 35t8 43v465h170zM412 819h-152l82 170h151z" />
    <glyph glyph-name="ucircumflex" unicode="&#xfb;" horiz-adv-x="659" 
d="M364 797l-36 76l-37 -76h-152l82 169h62h45h44h62l82 -169h-152zM606 747v-465q1 -57 -20.5 -107.5t-59 -89t-88 -61t-107.5 -22.5h-3q-56 0 -106 20.5t-89 58.5q-40 39 -61.5 89.5t-22.5 106.5v470h169v-469q0 -43 33 -76q16 -15 36 -23.5t42 -7.5q22 0 42 9t35 24
t23 35t8 43v465h169z" />
    <glyph glyph-name="udieresis" unicode="&#xfc;" horiz-adv-x="659" 
d="M608 745v-464q0 -57 -21 -108t-58.5 -89t-88 -60.5t-108.5 -23.5h-3q-56 0 -106 20.5t-89 59.5q-40 39 -61.5 89t-22.5 107v469h169v-468q2 -46 33 -77q33 -31 78 -31q22 0 42 9t35 24t23 35t8 43v465h170zM291 818h-152v152h152v-152zM518 818h-151v152h151v-152z" />
    <glyph glyph-name="fraction" unicode="&#x2044;" horiz-adv-x="368" 
d="M221 0h-171l97 743h171z" />
    <glyph glyph-name="degree" unicode="&#xb0;" horiz-adv-x="546" 
d="M273 733q46 0 86.5 -17.5t71 -48t48 -71t17.5 -86.5t-17.5 -86.5t-48 -71t-71 -48t-86.5 -17.5t-86.5 17.5t-71 48t-48 71t-17.5 86.5t17.5 86.5t48 71t71 48t86.5 17.5zM273 456q23 0 38.5 15.5t15.5 38.5t-15.5 38.5t-38.5 15.5t-38.5 -15.5t-15.5 -38.5t15.5 -38.5
t38.5 -15.5z" />
    <glyph glyph-name="ordmasculine" unicode="&#xba;" horiz-adv-x="546" 
d="M273 733q46 0 86.5 -17.5t71 -48t48 -71t17.5 -86.5t-17.5 -86.5t-48 -71t-71 -48t-86.5 -17.5t-86.5 17.5t-71 48t-48 71t-17.5 86.5t17.5 86.5t48 71t71 48t86.5 17.5zM273 456q23 0 38.5 15.5t15.5 38.5t-15.5 38.5t-38.5 15.5t-38.5 -15.5t-15.5 -38.5t15.5 -38.5
t38.5 -15.5z" />
    <glyph glyph-name="grave" unicode="`" horiz-adv-x="299" 
d="M263 565h-152l-81 170h151l82 -170v0z" />
    <glyph glyph-name="ring" unicode="&#x2da;" horiz-adv-x="546" 
d="M273 733q46 0 86.5 -17.5t71 -48t48 -71t17.5 -86.5t-17.5 -86.5t-48 -71t-71 -48t-86.5 -17.5t-86.5 17.5t-71 48t-48 71t-17.5 86.5t17.5 86.5t48 71t71 48t86.5 17.5zM273 456q23 0 38.5 15.5t15.5 38.5t-15.5 38.5t-38.5 15.5t-38.5 -15.5t-15.5 -38.5t15.5 -38.5
t38.5 -15.5z" />
    <glyph glyph-name="tilde" unicode="&#x2dc;" horiz-adv-x="560" 
d="M522 531l-482 1v169l482 -1v-169z" />
    <glyph glyph-name="guilsinglleft" unicode="&#x2039;" horiz-adv-x="606" 
d="M50 446l437 195l69 -154l-268 -120l268 -120l-69 -154l-437 195v158z" />
    <glyph glyph-name="guilsinglright" unicode="&#x203a;" horiz-adv-x="606" 
d="M556 288l-437 -195l-69 154l268 120l-268 120l69 154l437 -195v-158z" />
    <glyph glyph-name="No" horiz-adv-x="1250" 
d="M473 734h169v-734h-184l-239 428v-428h-169v732h184l239 -427v429zM1200 171l-1 -169h-514v169h515zM942 218q-53 0 -100 20t-82 55t-55.5 82t-20.5 101q0 53 20.5 100t55.5 82t82 55t100 20t100 -20t82 -55t55.5 -82t20.5 -100q0 -54 -20.5 -101t-55.5 -82t-82 -55
t-100 -20zM942 564q-37 0 -62.5 -26t-25.5 -62q0 -37 25.5 -63t62.5 -26t62.5 26t25.5 63q0 36 -25.5 62t-62.5 26z" />
    <glyph glyph-name="florin" unicode="&#x192;" horiz-adv-x="513" 
d="M493 565h-274v-111h217v-169h-217v-285h-169v734h443v-169z" />
    <glyph glyph-name="exclam" unicode="!" horiz-adv-x="275" 
d="M137 174q37 0 62.5 -25.5t25.5 -61.5t-25.5 -61.5t-62.5 -25.5q-36 0 -61.5 25.5t-25.5 61.5t25.5 61.5t61.5 25.5zM53 253v495h169v-495h-169z" />
    <glyph glyph-name="quotedbl" unicode="&#x22;" horiz-adv-x="485" 
d="M50 397v336h169v-336h-169zM266 733h169v-336h-169v336z" />
    <glyph glyph-name="numbersign" unicode="#" horiz-adv-x="755" 
d="M671 318l1 -169h-118l-20 -149h-171l20 148h-70l-19 -148h-171l20 148l-92 -1l-1 169l115 1l13 103h-94l-1 169h117l22 163h170l-21 -162h69l22 162h170l-21 -161h93l1 -169l-116 -1l-13 -103h95zM336 317l69 1l13 103l-69 -1z" />
    <glyph glyph-name="periodcentered" unicode="&#xb7;" horiz-adv-x="234" 
d="M117 279q-36 0 -61.5 25.5t-25.5 61.5q0 37 25.5 62.5t61.5 25.5t61.5 -25.5t25.5 -62.5q0 -36 -25.5 -61.5t-61.5 -25.5z" />
    <glyph glyph-name="acute" unicode="&#xb4;" horiz-adv-x="294" 
d="M30 565l81 170h152l-81 -170h-152v0z" />
    <glyph glyph-name="circumflex" unicode="&#x2c6;" horiz-adv-x="489" 
d="M280 795l-37 76l-36 -76h-152l82 169h62v0h44h45v0h62l82 -169h-152z" />
    <glyph glyph-name="hungarumlaut" unicode="&#x2dd;" horiz-adv-x="485" 
d="M50 397v336h169v-336h-169zM266 733h169v-336h-169v336z" />
    <glyph glyph-name="dotaccent" unicode="&#x2d9;" horiz-adv-x="269" 
d="M50 733h169v-336h-169v336z" />
  </font>
</defs>
</svg>
